<svg xmlns="http://www.w3.org/2000/svg" viewBox="0 0 420 120" role="img" aria-label="FoodHub Manager logo">
  <defs>
    <linearGradient id="g" x1="0" x2="1" y1="0" y2="1">
      <stop offset="0" stop-color="#7c3aed"/><stop offset="1" stop-color="#4c1d95"/>
    </linearGradient>
    <filter id="shadow" x="-20%" y="-20%" width="140%" height="140%"><feDropShadow dx="0" dy="8" stdDeviation="8" flood-color="#4c1d95" flood-opacity="0.22"/></filter>
  </defs>
  <rect x="8" y="8" width="104" height="104" rx="30" fill="url(#g)" filter="url(#shadow)"/>
  <path d="M34 67c4-20 17-33 32-33s28 13 32 33H34z" fill="#fff"/>
  <path d="M32 72h72c0 7-6 13-13 13H45c-7 0-13-6-13-13z" fill="#fff" opacity=".96"/>
  <path d="M48 38v27M58 38v27M68 38v27" stroke="#7c3aed" stroke-width="5" stroke-linecap="round"/>
  <path d="M80 38c12 9 12 23 0 31v19" stroke="#7c3aed" stroke-width="6" stroke-linecap="round" fill="none"/>
  <text x="132" y="56" font-family="Inter, Arial, sans-serif" font-size="42" font-weight="800" fill="#2e1065">FoodHub</text>
  <text x="134" y="88" font-family="Inter, Arial, sans-serif" font-size="22" font-weight="700" letter-spacing="3" fill="#7c3aed">MANAGER</text>
</svg>