<svg xmlns="http://www.w3.org/2000/svg" viewBox="0 0 900 560">
  <defs>
    <linearGradient id="bg" x1="0" x2="1" y1="0" y2="1"><stop offset="0" stop-color="#faf5ff"/><stop offset="1" stop-color="#ede9fe"/></linearGradient>
    <linearGradient id="p" x1="0" x2="1"><stop offset="0" stop-color="#7c3aed"/><stop offset="1" stop-color="#4c1d95"/></linearGradient>
    <filter id="s"><feDropShadow dx="0" dy="18" stdDeviation="18" flood-color="#4c1d95" flood-opacity=".20"/></filter>
  </defs>
  <rect width="900" height="560" rx="44" fill="url(#bg)"/>
  <circle cx="724" cy="116" r="72" fill="#ddd6fe" opacity=".85"/>
  <circle cx="195" cy="105" r="42" fill="#c4b5fd" opacity=".5"/>
  <path d="M76 403c150 62 317 82 499 55 111-17 185-42 255-17v119H76z" fill="#7c3aed" opacity=".17"/>
  <ellipse cx="450" cy="365" rx="282" ry="62" fill="#4c1d95" opacity=".10"/>
  <g filter="url(#s)">
    <ellipse cx="445" cy="325" rx="310" ry="92" fill="#fff"/>
    <ellipse cx="445" cy="325" rx="268" ry="64" fill="#ede9fe"/>
    <path d="M245 309c58-90 151-119 280-96 53 9 107 34 138 72 15 19 4 47-20 51-117 23-260 22-385 4-21-3-27-16-13-31z" fill="#f97316"/>
    <path d="M265 305c74 28 223 37 355 10" stroke="#7c2d12" stroke-width="10" opacity=".25" fill="none"/>
    <path d="M292 286c52 22 157 32 257 20" stroke="#fff7ed" stroke-width="9" opacity=".9" fill="none"/>
    <g fill="#22c55e"><ellipse cx="515" cy="232" rx="31" ry="12" transform="rotate(-25 515 232)"/><ellipse cx="544" cy="219" rx="23" ry="10" transform="rotate(26 544 219)"/><ellipse cx="542" cy="249" rx="30" ry="10" transform="rotate(10 542 249)"/></g>
    <circle cx="621" cy="343" r="22" fill="#ef4444"/><circle cx="669" cy="331" r="24" fill="#ef4444"/><circle cx="646" cy="371" r="20" fill="#dc2626"/>
    <path d="M327 359c42 15 78 19 118 10 29-7 46-23 47-49" stroke="#65a30d" stroke-width="16" stroke-linecap="round" fill="none"/>
    <rect x="566" y="284" width="112" height="92" rx="28" fill="url(#p)"/><ellipse cx="622" cy="285" rx="56" ry="19" fill="#a78bfa"/>
    <path d="M383 368c-24 9-42 25-53 49 45 5 85-3 116-26" fill="#facc15"/>
  </g>
  <g transform="translate(80 72)">
    <rect width="258" height="112" rx="28" fill="#fff" opacity=".94"/>
    <text x="28" y="45" font-family="Arial" font-size="24" font-weight="800" fill="#2e1065">Restaurant Control</text>
    <text x="28" y="79" font-family="Arial" font-size="18" fill="#6d28d9">Orders • Menu • Analytics</text>
  </g>
</svg>